<svg xmlns="http://www.w3.org/2000/svg" height="32" width="32" xml:space="preserve"><path style="fill:#035b81;fill-opacity:1;fill-rule:nonzero;stroke:none" d="M20 5.81C20 2.17 17.83 0 14.19 0H13c-.55 0-1 .45-1 1v5.77c0 .27.22.5.49.5l1.76.03c.14.01.26.11.29.25l.35 1.91c.03.18-.11.35-.3.35l-2.13-.03c-.28 0-.5.22-.51.49l-.04 2.45c0 .16.13.3.3.3l2.4.04c.17 0 .3.13.3.3l-.04 2.4c0 .17-.13.3-.3.3l-2.7-.04a2.996 2.996 0 0 1-2.95-3.05l.05-2.75c.01-.28-.21-.5-.49-.51l-1.2-.02c-.17 0-.3-.13-.3-.3l.03-1.9c0-.17.13-.3.3-.3l1.2.02c.28 0 .5-.22.51-.49l.09-5.7C9.12.46 8.67 0 8.11 0h-2.3C2.17 0 0 2.17 0 5.82v8.37C0 17.83 2.17 20 5.81 20h8.38c3.64 0 5.81-2.17 5.81-5.81V5.81z" transform="matrix(1.33333 0 0 -1.33333 2.667 29.333)"/></svg>