<svg xmlns="http://www.w3.org/2000/svg" height="32" width="32" xml:space="preserve"><path style="fill:#ffc107;fill-opacity:1;fill-rule:nonzero;stroke:none" d="M19.805 11.959H19V12h-9V8h5.651A5.998 5.998 0 0 0 4 10a6 6 0 0 0 6 6c1.53 0 2.921-.577 3.98-1.52l2.829 2.829A9.954 9.954 0 0 1 10 20C4.477 20 0 15.523 0 10 0 4.478 4.477 0 10 0c5.522 0 10 4.478 10 10 0 .67-.069 1.325-.195 1.959z" transform="matrix(1.33333 0 0 -1.33333 2.667 29.333)"/><path style="fill:#ff3d00;fill-opacity:1;fill-rule:nonzero;stroke:none" d="M0 2.41 3.285 0a5.997 5.997 0 0 0 5.562 3.755c1.53 0 2.921-.577 3.98-1.52l2.829 2.829a9.954 9.954 0 0 1-6.809 2.691A9.994 9.994 0 0 1 0 2.41z" transform="matrix(1.33333 0 0 -1.33333 4.204 13.007)"/><path style="fill:#4caf50;fill-opacity:1;fill-rule:nonzero;stroke:none" d="M8.903 0c2.583 0 4.93.988 6.704 2.596l-3.095 2.619A5.955 5.955 0 0 0 8.902 4a5.997 5.997 0 0 0-5.641 3.973L0 5.46C1.655 2.222 5.016 0 8.903 0z" transform="matrix(1.33333 0 0 -1.33333 4.13 29.333)"/><path style="fill:#1976d2;fill-opacity:1;fill-rule:nonzero;stroke:none" d="M9.805 9.561H9v.042H0v-4h5.652a6.02 6.02 0 0 0-2.044-2.786l.001.001L6.704.199C6.485 0 10 2.603 10 7.603c0 .67-.069 1.325-.195 1.958z" transform="matrix(1.33333 0 0 -1.33333 16 26.137)"/></svg>